<svg xmlns="http://www.w3.org/2000/svg" width="512" height="512" viewBox="0 0 512 512">
  <defs>
    <linearGradient id="bg" x1="0" y1="0" x2="0" y2="1">
      <stop offset="0" stop-color="#4FC3F7"/>
      <stop offset="1" stop-color="#0277BD"/>
    </linearGradient>
  </defs>
  <rect x="16" y="16" width="480" height="480" rx="112" fill="url(#bg)"/>
  <g stroke="#FFFFFF" stroke-width="22" stroke-linecap="round" fill="none">
    <line x1="256.0" y1="256.0" x2="256.0" y2="406.0"/>
    <line x1="256.0" y1="338.5" x2="222.2" y2="358.0"/>
    <line x1="256.0" y1="338.5" x2="289.8" y2="358.0"/>
    <line x1="256.0" y1="376.0" x2="222.2" y2="395.5"/>
    <line x1="256.0" y1="376.0" x2="289.8" y2="395.5"/>
    <line x1="256.0" y1="256.0" x2="126.1" y2="331.0"/>
    <line x1="184.6" y1="297.2" x2="150.8" y2="277.8"/>
    <line x1="184.6" y1="297.2" x2="184.6" y2="336.2"/>
    <line x1="152.1" y1="316.0" x2="118.3" y2="296.5"/>
    <line x1="152.1" y1="316.0" x2="152.1" y2="355.0"/>
    <line x1="256.0" y1="256.0" x2="126.1" y2="181.0"/>
    <line x1="184.6" y1="214.8" x2="184.6" y2="175.8"/>
    <line x1="184.6" y1="214.8" x2="150.8" y2="234.2"/>
    <line x1="152.1" y1="196.0" x2="152.1" y2="157.0"/>
    <line x1="152.1" y1="196.0" x2="118.3" y2="215.5"/>
    <line x1="256.0" y1="256.0" x2="256.0" y2="106.0"/>
    <line x1="256.0" y1="173.5" x2="289.8" y2="154.0"/>
    <line x1="256.0" y1="173.5" x2="222.2" y2="154.0"/>
    <line x1="256.0" y1="136.0" x2="289.8" y2="116.5"/>
    <line x1="256.0" y1="136.0" x2="222.2" y2="116.5"/>
    <line x1="256.0" y1="256.0" x2="385.9" y2="181.0"/>
    <line x1="327.4" y1="214.7" x2="361.2" y2="234.2"/>
    <line x1="327.4" y1="214.7" x2="327.4" y2="175.7"/>
    <line x1="359.9" y1="196.0" x2="393.7" y2="215.5"/>
    <line x1="359.9" y1="196.0" x2="359.9" y2="157.0"/>
    <line x1="256.0" y1="256.0" x2="385.9" y2="331.0"/>
    <line x1="327.4" y1="297.2" x2="327.4" y2="336.2"/>
    <line x1="327.4" y1="297.2" x2="361.2" y2="277.8"/>
    <line x1="359.9" y1="316.0" x2="359.9" y2="355.0"/>
    <line x1="359.9" y1="316.0" x2="393.7" y2="296.5"/>
  </g>
  <circle cx="256" cy="256" r="16" fill="#FFFFFF"/>
</svg>
